<?xml version="1.0" encoding="UTF-8"?>
<svg id="Layer_1" xmlns="http://www.w3.org/2000/svg" version="1.1" viewBox="0 0 204.23 77.9">
  <!-- Generator: Adobe Illustrator 29.5.1, SVG Export Plug-In . SVG Version: 2.1.0 Build 141)  -->
  <path d="M8.1,51.01c4.04-6.48,3.08-37.76,3.19-40.53-7.1,1.22-6,5.29-6.58,6.07s-1.32,1.17-2.21,1.17c-1.66,0-2.5-.94-2.5-2.83,0-3.38,6.51-6.12,11.61-7.23.39-2.27,1.33-4.12,2.83-5.54,1.5-1.42,2.86-2.12,4.08-2.12s2.21.35,2.96,1.04c.75.69,1.12,1.62,1.12,2.79,0,2.72-1.89,4.61-5.66,5.66,0,0,.43,26.87.08,30.79-.54,6.04-3.94,10.97-7.35,12.19-.9.32-2.07-.64-1.57-1.46ZM19.18,2.83c-1.22,0-1.94,1.25-2.16,3.75,2-.61,3-1.42,3-2.41,0-.89-.28-1.33-.83-1.33h-.01Z"/>
  <path d="M62.3,33.46c1.72-.5,3.52-1.34,5.41-2.54,1.89-1.19,3.08-1.79,3.58-1.79s.75.32.75.96-.39,1.24-1.17,1.79c-2.83,2-5.77,3.52-8.82,4.58-1.17,5.38-3.77,9.41-7.83,12.07-4.05,2.66-8.69,4-13.9,4-3.33,0-6.26-.58-8.78-1.75-2.53-1.17-4.45-2.66-5.79-4.5-2.66-3.61-4-7.41-4-11.4,0-5.16.79-9.84,2.37-14.03,1.58-4.19,3.65-7.55,6.2-10.07,2.55-2.52,5.31-4.45,8.28-5.79,2.97-1.33,5.98-2,9.03-2s5.85.99,8.41,2.96c2.55,1.97,3.83,4.23,3.83,6.78,0,.83-.32,1.53-.96,2.08-.64.56-1.4.83-2.29.83-1.28,0-2.16-.89-2.66-2.66-1.22-4.27-4.13-6.41-8.74-6.41-3.88,0-7.65,2.41-11.28,7.24-3.64,4.83-5.45,10.55-5.45,17.15,0,4.66,1.4,8.71,4.2,12.15,2.8,3.44,6.31,5.16,10.53,5.16,3.38,0,6.27-.97,8.66-2.91,2.39-1.94,3.91-4.44,4.58-7.49-1.39.28-3.08.42-5.08.42s-3.73-.47-5.2-1.42c-1.47-.94-2.21-2.23-2.21-3.87s.85-3.04,2.54-4.2c1.69-1.17,3.84-1.75,6.45-1.75s4.81.53,6.62,1.58c1.8,1.05,2.71,2.66,2.71,4.83h0ZM52.73,29.89c-2.5,0-3.75.56-3.75,1.66,0,.83.5,1.53,1.5,2.08,1,.56,2.04.83,3.12.83s2.18-.05,3.29-.17c-.06-1.33-.5-2.4-1.33-3.2-.83-.8-1.78-1.21-2.83-1.21h0Z"/>
  <path d="M111.92,13.07l.42-2.16c-.22-3-2.25-4.5-6.08-4.5-2.22,0-4.15.79-5.79,2.37s-2.46,3.25-2.46,4.99.73,3.28,2.21,4.58c1.47,1.3,3.25,2.47,5.33,3.5s4.16,2.14,6.24,3.33c2.08,1.19,3.86,2.73,5.33,4.62,1.47,1.89,2.21,4.02,2.21,6.41,0,4.94-1.94,8.82-5.83,11.65s-8.07,4.25-12.57,4.25-8.24-.82-11.24-2.46-4.5-4.12-4.5-7.45c0-1.78.61-3.38,1.83-4.83,1.22-1.44,2.97-2.16,5.24-2.16.89,0,1.69.25,2.41.75s1.17,1.17,1.33,2c0,.83-.5,1.25-1.5,1.25-1.89,0-2.83.81-2.83,2.41.05,1.83.93,3.5,2.62,4.99,1.69,1.5,4.08,2.25,7.16,2.25s5.72-1.05,7.91-3.16,3.29-4.66,3.29-7.66c0-2-.75-3.8-2.25-5.41s-3.3-2.98-5.41-4.12c-2.11-1.14-4.23-2.29-6.37-3.45-2.14-1.17-3.95-2.58-5.45-4.25-1.5-1.66-2.25-3.55-2.25-5.66,0-3.72,1.59-6.69,4.79-8.91,3.19-2.22,6.81-3.33,10.86-3.33,2.72,0,5.19.56,7.41,1.66,2.22,1.11,3.36,2.8,3.41,5.08,0,1.33-.33,2.44-1,3.33-.67.89-1.57,1.33-2.71,1.33s-1.73-.42-1.79-1.25h.03Z"/>
  <path d="M126.65,25.39c.61-.72,1.58-1.65,2.91-2.79,1.33-1.14,2.39-1.71,3.16-1.71s1.17,1.1,1.17,3.29-.58,4.34-1.75,6.45c-.22,1-.39,2.44-.5,4.33,1.61-4.38,3.22-7.69,4.83-9.91s3.57-3.33,5.87-3.33,4.31,1.04,6.04,3.12c1.72,2.08,2.58,5.36,2.58,9.82s-1.26,8.42-3.79,11.86-5.84,5.16-9.95,5.16c-2.11,0-4.25-.78-6.41-2.33,0,10.6-.61,18.67-1.83,24.22-.11.5-.85,1.34-2.21,2.54-1.36,1.19-2.36,1.79-3,1.79s-1.1-.45-1.37-1.33c-.28-.89-.42-1.72-.42-2.5,0-5.72,1.17-13.07,3.5-22.06.39-5.22.65-10.93.79-17.15.14-6.21.26-9.38.37-9.49v.02ZM137.72,48.7c1.61,0,3.27-1.12,4.99-3.37s2.58-5.02,2.58-8.32-.46-5.94-1.37-7.91c-.92-1.97-2.15-2.96-3.7-2.96-2.66,0-5.69,5.52-9.07,16.57-.11,1.55-.17,2.78-.17,3.66,1.55,1.55,3.8,2.33,6.74,2.33h0Z"/>
  <path d="M160.11,51.7c-1.22,0-2.34-.15-3.37-.46-1.03-.3-1.65-.6-1.87-.87-.56-.67-.83-4.12-.83-10.36s.69-14.72,2.08-25.43c1.17-8.82,3.88-13.24,8.16-13.24,1,0,1.72.54,2.16,1.62s.67,2.12.67,3.12c0,7.22-2.19,15.29-6.58,24.22-.17,4.61-.25,8.62-.25,12.03s.3,5.12.92,5.12c.94-.05,2.25-1.23,3.91-3.54,1.66-2.3,3.32-5.26,4.95-8.87,1.64-3.61,2.64-5.41,3-5.41s.54.22.54.67c0,1.55-.8,4.02-2.41,7.41-4.38,9.32-8.07,13.99-11.07,13.99h-.01ZM165.03,6.83c0-1.78-.22-2.66-.67-2.66-1.66,0-2.89,6.91-3.66,20.73,2.89-7.6,4.33-13.62,4.33-18.06h0Z"/>
  <path d="M174.1,51.7c-2.16,0-3.8-.44-4.91-1.33-.39-.39-.58-1.78-.58-4.16s.18-6.37.54-11.95c.36-5.58.68-8.59.96-9.03.28-.44,1.14-1.28,2.58-2.5s2.57-1.83,3.37-1.83,1.21,1.05,1.21,3.16c0,.56-.15,1.64-.46,3.25-.31,1.61-.65,2.78-1.04,3.5-.72,1.83-1.08,6.63-1.08,14.4,0,1.5.17,2.25.5,2.25.94-.05,2.25-1.23,3.91-3.54,1.66-2.3,3.32-5.26,4.95-8.87,1.64-3.61,2.64-5.41,3-5.41s.54.22.54.67c0,1.55-.8,4.02-2.41,7.41-4.38,9.32-8.07,13.99-11.07,13.99h0ZM171.68,10.57c0-1,.53-1.86,1.58-2.58s2-1.08,2.83-1.08c1.5,0,2.25.86,2.25,2.58s-.45,3.2-1.33,4.45c-.89,1.25-2.14,1.87-3.75,1.87-1.06,0-1.58-1.75-1.58-5.24Z"/>
  <path d="M201.82,37.71c-4.38,9.32-8.09,13.99-11.11,13.99s-4.8-.36-5.33-1.08-.79-3.11-.79-7.16.39-9.91,1.17-17.56c-2.77-.55-4.25-1.69-4.41-3.41,0-.89.58-1.33,1.75-1.33s2.19.22,3.08.67c.5-4,1.08-8.05,1.75-12.15.17-1.05.69-2.05,1.58-3,.89-.94,1.75-1.42,2.58-1.42.72,0,1.08,1.14,1.08,3.41,0,1.05-.39,5.91-1.17,14.57,1.5-.28,3.15-.83,4.95-1.66s2.87-1.25,3.2-1.25c1,0,1.5.31,1.5.92.05.56-.97,1.32-3.08,2.29-2.11.97-4.39,1.71-6.83,2.21-.67,8.1-1,14.23-1,18.4,0,2.22.33,3.33,1,3.33,1-.05,2.33-1.22,4-3.5,1.66-2.28,3.32-5.23,4.95-8.87,1.64-3.63,2.64-5.45,3-5.45s.54.22.54.67c0,1.55-.8,4.02-2.41,7.41v-.03Z"/>
</svg>